<svg id="Layer_1" data-name="Layer 1" xmlns="http://www.w3.org/2000/svg" viewBox="0 0 1402 1920"><defs><style>.cls-1{fill:#313542;}</style></defs><title>logotipo - preto</title><path class="cls-1" d="M258,913.74h-.13v-.17A532.54,532.54,0,0,1,150.45,592.32c0-162,72.3-307.32,186.34-405.56V344.13a427.3,427.3,0,0,0-21.72,462.71H739.15V913.73H258ZM685.71,57.06a531.9,531.9,0,0,0-268.23,72.22h-.42v.25l-.14.08V259l.14-.11V700H524V195.67a425.25,425.25,0,0,1,108.31-28.38V594.54H739.15V167.28a424.6,424.6,0,0,1,106,27.45V700H952V257c98.69,78.55,162.08,199.65,162.08,335.3,0,236.21-192.16,428.39-428.36,428.39a426,426,0,0,1-149.55-27H332c94.38,83.23,218.22,133.83,353.67,133.83,295.14,0,535.26-240.12,535.26-535.26S980.85,57.06,685.71,57.06Z"/><path class="cls-1" d="M174.49,1267.61H221v245.7H174.49Z"/><path class="cls-1" d="M346.47,1326.38c29.55,0,49.81,13.94,60.76,29.22v-26.23h46.82v183.94H407.23v-26.9c-11,15.94-31.87,29.88-61.09,29.88-46.48,0-83.67-38.18-83.67-95.62S299.66,1326.38,346.47,1326.38Zm12,40.84c-24.9,0-48.48,18.59-48.48,53.45s23.58,54.78,48.48,54.78c25.56,0,48.8-19.25,48.8-54.11S384,1367.22,358.43,1367.22Zm42.5-123.51v37.85l-76.37,34.86v-33.2Z"/><path class="cls-1" d="M630.68,1366.89l-81,108.23h82v38.19H496.88v-37.52l80.34-108.24h-80v-38.18H630.68Z"/><path class="cls-1" d="M747.21,1326.38c29.55,0,49.81,13.94,60.76,29.22v-26.23h46.82v183.94H808v-26.9c-11,15.94-31.87,29.88-61.09,29.88-46.48,0-83.67-38.18-83.67-95.62S700.4,1326.38,747.21,1326.38Zm12,40.84c-24.91,0-48.48,18.59-48.48,53.45s23.57,54.78,48.48,54.78c25.56,0,48.8-19.25,48.8-54.11S784.73,1367.22,759.17,1367.22Z"/><path class="cls-1" d="M954.39,1513.31H907.91V1329.37h46.48v28.55c11.62-18.93,30.88-31.21,56.44-31.21v48.81H998.55c-27.56,0-44.16,10.62-44.16,46.15Z"/><path class="cls-1" d="M1131.35,1516.29c-53.12,0-93.3-37.18-93.3-95,0-58.11,41.51-95,94.63-95s94.63,36.85,94.63,95C1227.31,1479.11,1184.81,1516.29,1131.35,1516.29Zm0-40.5c24.57,0,48.15-17.93,48.15-54.45,0-36.86-22.91-54.45-47.48-54.45s-46.82,17.59-46.82,54.45C1085.2,1457.86,1106.45,1475.79,1131.35,1475.79Z"/><path class="cls-1" d="M350.72,1677.81c0-38.62-20.11-58.41-51.07-58.41-31.6,0-53.95,21.06-53.95,63.52v94.48h-22v-99.59c0-38.62-20.43-58.41-51.39-58.41-31.92,0-53.95,21.06-53.95,63.52v94.48H96V1603.12h22.34v30c11.18-22,33.2-33.19,57.78-33.19,29,0,53.94,13.72,64.47,42.77,9.58-28.41,35.12-42.77,62.89-42.77,38.62,0,69.26,24.26,69.26,75.33V1777.4h-22Z"/><path class="cls-1" d="M495.29,1600.56c35.11,0,59.05,18.84,68.95,40.86v-38.3h22.34V1777.4H564.24v-38.63C554,1761.12,529.77,1780,495,1780c-47.56,0-83-35.43-83-90S447.41,1600.56,495.29,1600.56Zm4.15,19.48c-36.7,0-64.79,25.53-64.79,69.9,0,44,28.09,70.54,64.79,70.54,35.75,0,64.8-26.81,64.8-70.22S535.19,1620,499.44,1620Z"/><path class="cls-1" d="M710.74,1600.56c34.47,0,59,18.52,68.94,40.54v-38H802v178.75c0,48.83-33.52,81.07-81.4,81.07-45,0-76.29-23-83.31-59.37h22c7.34,23.62,29.36,39.9,61.28,39.9,33.2,0,59-22,59-61.6v-43.1c-10.21,22.35-34.47,41.18-68.94,41.18-47.88,0-83.31-35.43-83.31-90S662.86,1600.56,710.74,1600.56Zm4.15,19.48c-36.71,0-64.8,25.53-64.8,69.9,0,44,28.09,70.54,64.8,70.54,35.75,0,64.79-26.81,64.79-70.22S750.64,1620,714.89,1620Z"/><path class="cls-1" d="M926.18,1600.56c35.11,0,59.05,18.84,68.94,40.86v-38.3h22.35V1777.4H995.12v-38.63c-10.21,22.35-34.47,41.18-69.26,41.18-47.56,0-83-35.43-83-90S878.3,1600.56,926.18,1600.56Zm4.15,19.48c-36.71,0-64.8,25.53-64.8,69.9,0,44,28.09,70.54,64.8,70.54,35.75,0,64.79-26.81,64.79-70.22S966.08,1620,930.33,1620Z"/><path class="cls-1" d="M1068.53,1603.12h22.34V1777.4h-22.34Z"/><path class="cls-1" d="M1214.71,1600.56c35.11,0,59,18.84,69,40.86v-38.3H1306V1777.4h-22.34v-38.63c-10.22,22.35-34.48,41.18-69.27,41.18-47.56,0-83-35.43-83-90S1166.83,1600.56,1214.71,1600.56Zm4.15,19.48c-36.71,0-64.8,25.53-64.8,69.9,0,44,28.09,70.54,64.8,70.54,35.75,0,64.8-26.81,64.8-70.22S1254.61,1620,1218.86,1620Z"/></svg>